<mxfile host="app.diagrams.net" agent="Mozilla/5.0 (Windows NT 10.0; Win64; x64) AppleWebKit/537.36 (KHTML, like Gecko) Chrome/130.0.0.0 Safari/537.36" version="24.8.6">
  <diagram name="Side-1" id="73CHjgzLlCSozAhIhoE-">
    <mxGraphModel dx="1167" dy="632" grid="1" gridSize="10" guides="1" tooltips="1" connect="1" arrows="1" fold="1" page="1" pageScale="1" pageWidth="1169" pageHeight="1654" math="0" shadow="0">
      <root>
        <mxCell id="0" />
        <mxCell id="1" parent="0" />
        <mxCell id="e53wrTWpCOjGmr5jiETH-4" value="" style="edgeStyle=orthogonalEdgeStyle;rounded=0;orthogonalLoop=1;jettySize=auto;html=1;" edge="1" parent="1" source="e53wrTWpCOjGmr5jiETH-1" target="e53wrTWpCOjGmr5jiETH-2">
          <mxGeometry relative="1" as="geometry" />
        </mxCell>
        <mxCell id="e53wrTWpCOjGmr5jiETH-1" value="Load Data Set" style="rounded=0;whiteSpace=wrap;html=1;" vertex="1" parent="1">
          <mxGeometry x="130" y="250" width="120" height="60" as="geometry" />
        </mxCell>
        <mxCell id="e53wrTWpCOjGmr5jiETH-5" value="" style="edgeStyle=orthogonalEdgeStyle;rounded=0;orthogonalLoop=1;jettySize=auto;html=1;" edge="1" parent="1" source="e53wrTWpCOjGmr5jiETH-2" target="e53wrTWpCOjGmr5jiETH-3">
          <mxGeometry relative="1" as="geometry" />
        </mxCell>
        <mxCell id="e53wrTWpCOjGmr5jiETH-2" value="Configure Start, End and Step Values" style="rounded=0;whiteSpace=wrap;html=1;" vertex="1" parent="1">
          <mxGeometry x="300" y="250" width="120" height="60" as="geometry" />
        </mxCell>
        <mxCell id="e53wrTWpCOjGmr5jiETH-16" style="edgeStyle=orthogonalEdgeStyle;rounded=0;orthogonalLoop=1;jettySize=auto;html=1;exitX=1;exitY=0.5;exitDx=0;exitDy=0;entryX=0;entryY=0.5;entryDx=0;entryDy=0;" edge="1" parent="1" source="e53wrTWpCOjGmr5jiETH-3" target="e53wrTWpCOjGmr5jiETH-15">
          <mxGeometry relative="1" as="geometry" />
        </mxCell>
        <mxCell id="e53wrTWpCOjGmr5jiETH-3" value="Load Data into Array" style="rounded=0;whiteSpace=wrap;html=1;" vertex="1" parent="1">
          <mxGeometry x="464.5" y="250" width="120" height="60" as="geometry" />
        </mxCell>
        <mxCell id="e53wrTWpCOjGmr5jiETH-13" style="edgeStyle=orthogonalEdgeStyle;rounded=0;orthogonalLoop=1;jettySize=auto;html=1;exitX=1;exitY=0.5;exitDx=0;exitDy=0;" edge="1" parent="1" source="e53wrTWpCOjGmr5jiETH-6">
          <mxGeometry relative="1" as="geometry">
            <mxPoint x="980" y="279.9565217391305" as="targetPoint" />
          </mxGeometry>
        </mxCell>
        <mxCell id="e53wrTWpCOjGmr5jiETH-6" value="Convert Both Polarities into a Total E-Field" style="rounded=0;whiteSpace=wrap;html=1;" vertex="1" parent="1">
          <mxGeometry x="790" y="250" width="120" height="60" as="geometry" />
        </mxCell>
        <mxCell id="e53wrTWpCOjGmr5jiETH-9" value="2D-array" style="text;html=1;align=center;verticalAlign=middle;whiteSpace=wrap;rounded=0;" vertex="1" parent="1">
          <mxGeometry x="910" y="245" width="60" height="30" as="geometry" />
        </mxCell>
        <mxCell id="e53wrTWpCOjGmr5jiETH-18" value="" style="edgeStyle=orthogonalEdgeStyle;rounded=0;orthogonalLoop=1;jettySize=auto;html=1;" edge="1" parent="1" source="e53wrTWpCOjGmr5jiETH-15" target="e53wrTWpCOjGmr5jiETH-6">
          <mxGeometry relative="1" as="geometry" />
        </mxCell>
        <mxCell id="e53wrTWpCOjGmr5jiETH-15" value="Introduce Errors" style="rounded=0;whiteSpace=wrap;html=1;" vertex="1" parent="1">
          <mxGeometry x="630" y="250" width="120" height="60" as="geometry" />
        </mxCell>
      </root>
    </mxGraphModel>
  </diagram>
</mxfile>
